<svg xmlns="http://www.w3.org/2000/svg" xmlns:xlink="http://www.w3.org/1999/xlink" version="1.1" width="185" height="68" viewBox="0 0 185 68" xml:space="preserve">
<desc>Created with Fabric.js 3.5.0</desc>
<defs>
</defs>
<rect x="0" y="0" width="100%" height="100%" fill="#0d2438"/>
<g transform="matrix(0.3284 0 0 0.3284 31.7769 33.9977)" id="692607" clip-path="url(#CLIPPATH_24)">
<clipPath id="CLIPPATH_24">
	<rect transform="matrix(1 0 0 1 0.0001 0)" id="clip0_302_96" x="-79" y="-79" rx="0" ry="0" width="158" height="158"/>
</clipPath>
<path style="stroke: none; stroke-width: 1; stroke-dasharray: none; stroke-linecap: butt; stroke-dashoffset: 0; stroke-linejoin: miter; stroke-miterlimit: 4; is-custom-font: none; font-file-url: none; fill: rgb(244,244,244); fill-rule: nonzero; opacity: 1;" vector-effect="non-scaling-stroke" transform=" translate(-78.9999, -79)" d="M 106.124 -0.0000765851 H 51.8754 C 51.8303 -0.0000765851 51.7848 -0.0000765851 51.7397 -0.0000765851 C 23.1271 0.0374314 -0.0376151 23.2628 -0.000107103 51.8754 V 106.124 C -0.000107103 106.17 -0.000107103 106.215 -0.000107103 106.26 C 0.0374009 134.873 23.2628 158.037 51.8754 158 H 106.124 C 106.17 158 106.215 158 106.26 158 C 134.873 157.962 158.037 134.737 158 106.124 V 51.8754 C 158 51.8303 158 51.7848 158 51.7397 C 157.962 23.1271 134.737 -0.0375846 106.124 -0.0000765851 Z" stroke-linecap="round"/>
</g>
<g transform="matrix(1 0 0 1 125.7103 34)" style="" id="188762">
		
<path xml:space="preserve" font-family="Martel Sans" font-size="36" font-style="normal" font-weight="bold" style="stroke: none; stroke-width: 1; stroke-dasharray: none; stroke-linecap: butt; stroke-dashoffset: 0; stroke-linejoin: miter; stroke-miterlimit: 4; is-custom-font: none; font-file-url: none; fill: rgb(247,248,252); fill-rule: nonzero; opacity: 1; white-space: pre;" d="M-50.26 11.81Q-55.37 11.81-58.72 9.80L-58.72 9.80L-57.53 6.38Q-55.73 7.31-54 7.76Q-52.27 8.21-50.33 8.21L-50.33 8.21Q-48.13 8.21-46.66 7.31Q-45.18 6.41-45.18 4.72L-45.18 4.72Q-45.18 3.68-45.88 2.94Q-46.58 2.20-47.63 1.71Q-48.67 1.23-50.51 0.58L-50.51 0.58Q-52.88-0.28-54.34-1.02Q-55.80-1.76-56.84-3.07Q-57.89-4.39-57.89-6.40L-57.89-6.40Q-57.89-9.82-55.35-11.71Q-52.81-13.60-48.64-13.60L-48.64-13.60Q-44.46-13.60-41.29-11.66L-41.29-11.66L-42.48-8.28Q-45.47-10.00-48.49-10.00L-48.49-10.00Q-50.51-10.00-51.80-9.14Q-53.10-8.28-53.10-6.69L-53.10-6.69Q-53.10-5.76-52.43-5.07Q-51.77-4.39-50.78-3.94Q-49.79-3.49-47.99-2.80L-47.99-2.80Q-45.54-1.90-44.03-1.13Q-42.52-0.36-41.44 0.99Q-40.36 2.34-40.36 4.43L-40.36 4.43Q-40.36 7.89-42.98 9.85Q-45.61 11.81-50.26 11.81L-50.26 11.81ZM-24.08-9.03L-24.08-4.53Q-25.85-4.53-27.41-4.15Q-28.98-3.78-30.82-2.70L-30.82-2.70L-30.82 11.31L-35.57 11.31L-35.57-8.53L-32.00-8.53L-31.21-6.08Q-29.41-7.70-27.68-8.37Q-25.96-9.03-24.08-9.03L-24.08-9.03ZM-17.39-12.88Q-18.54-12.88-19.37-13.71Q-20.20-14.54-20.20-15.69L-20.20-15.69Q-20.20-16.84-19.37-17.67Q-18.54-18.50-17.39-18.50L-17.39-18.50Q-16.20-18.50-15.37-17.67Q-14.54-16.84-14.54-15.69L-14.54-15.69Q-14.54-14.54-15.37-13.71Q-16.20-12.88-17.39-12.88L-17.39-12.88ZM-19.73 11.31L-19.73-8.53L-14.98-8.53L-14.98 11.31L-19.73 11.31ZM2.88-9.03L2.88-4.53Q1.12-4.53-0.45-4.15Q-2.02-3.78-3.85-2.70L-3.85-2.70L-3.85 11.31L-8.60 11.31L-8.60-8.53L-5.04-8.53L-4.25-6.08Q-2.45-7.70-0.72-8.37Q1.01-9.03 2.88-9.03L2.88-9.03ZM24.44 7.89L24.70 11.16Q23.11 11.63 21.42 11.67L21.42 11.67Q19.84 11.67 18.77 11.13Q17.71 10.59 17.28 9.29L17.28 9.29Q15.70 10.48 14.18 11.09Q12.67 11.71 10.98 11.71L10.98 11.71Q8.60 11.71 7.09 10.32Q5.58 8.93 5.58 6.88L5.58 6.88Q5.58 4.83 6.66 3.53Q7.74 2.24 9.67 1.44Q11.59 0.65 15.12-0.36L15.12-0.36L16.99-0.90L16.99-1.69Q16.99-3.52 16.22-4.51Q15.44-5.50 13.86-5.50L13.86-5.50Q12.20-5.50 10.60-4.82Q9.00-4.14 6.95-2.41L6.95-2.41L5.69-5.54Q10.19-9.07 15.19-9.07L15.19-9.07Q18.47-9.07 20.11-7.32Q21.74-5.58 21.74-1.44L21.74-1.44L21.74 6.70Q21.74 7.49 22.03 7.83Q22.32 8.18 23.00 8.18L23.00 8.18Q23.69 8.18 24.44 7.89L24.44 7.89ZM10.33 6.34Q10.33 8.21 12.42 8.21L12.42 8.21Q13.46 8.21 14.54 7.74Q15.62 7.28 16.99 6.34L16.99 6.34L16.99 1.88L15.70 2.31Q12.64 3.32 11.48 4.18Q10.33 5.04 10.33 6.34L10.33 6.34ZM51.23-9.07Q54.76-9.07 56.09-7.18Q57.42-5.29 57.42-1.72L57.42-1.72L57.42 11.31L52.70 11.31L52.70-1.18Q52.70-3.56 52.07-4.53Q51.44-5.50 49.79-5.50L49.79-5.50Q47.70-5.50 45.14-3.60L45.14-3.60L45.07-3.78Q45.18-2.80 45.18-1.72L45.18-1.72L45.18 11.31L40.46 11.31L40.46-1.18Q40.46-3.56 39.83-4.53Q39.20-5.50 37.55-5.50L37.55-5.50Q35.42-5.50 32.98-3.63L32.98-3.63L32.98 11.31L28.22 11.31L28.22-8.53L31.79-8.53L32.36-6.69Q35.86-9.07 38.99-9.07L38.99-9.07Q41.04-9.07 42.32-8.40Q43.60-7.74 44.28-6.48L44.28-6.48Q47.99-9.07 51.23-9.07L51.23-9.07Z"/></g>
<g transform="matrix(0.2692 0 0 0.2692 31.8349 34.0016)" id="Fill">
<linearGradient id="SVGID_23" gradientUnits="userSpaceOnUse" gradientTransform="matrix(0 -152.873 152.873 0 382.389 669.248)" x1="0" y1="0" x2="1" y2="0">
<stop offset="0%" style="stop-color:rgb(73,83,157);stop-opacity: 1"/>
<stop offset="100%" style="stop-color:rgb(91,102,179);stop-opacity: 1"/>
</linearGradient>
<path style="stroke: none; stroke-width: 1; stroke-dasharray: none; stroke-linecap: butt; stroke-dashoffset: 0; stroke-linejoin: round; stroke-miterlimit: 1.4142; is-custom-font: none; font-file-url: none; fill: url(#SVGID_23); fill-rule: evenodd; opacity: 1;" transform=" translate(-370.0967, -592.811)" d="M 368.312 558.763 C 374.702 558.763 383.231 558.405 388.056 567.41 C 391.708 574.228 396.788 580.225 406.566 574.244 C 413.78 569.831 406.384 556.616 403.472 553.705 C 400.561 550.793 391.406 543.11 373.168 543.11 C 354.929 543.11 332.576 548.731 332.576 569.739 C 332.576 590.747 351.029 596.175 364.119 598.88 C 377.209 601.586 391.371 603.841 391.513 614.088 C 391.655 624.336 376.231 626.664 370.097 626.623 C 363.963 626.582 356.548 625.513 350.111 610.383 C 347.14 603.4 339.37 603.209 334.835 605.84 C 330.301 608.472 328.292 615.67 333.912 625.055 C 339.533 634.44 351.29 642.512 370.097 642.512 C 388.904 642.512 413.392 635.397 413.392 614.088 C 413.392 592.78 401.079 586.666 378.751 581.756 C 356.422 576.846 352.938 573.79 353.479 567.41 C 354.021 561.031 363.846 558.763 368.312 558.763 Z M 441.232 609.202 C 449.386 623.963 446.658 643.57 433.407 656.821 C 419.289 670.939 397.956 673.112 382.956 662.906 C 379.326 663.476 375.606 663.771 371.818 663.771 C 332.402 663.771 300.401 631.77 300.401 592.354 C 300.401 588.236 300.75 584.199 301.421 580.271 C 290.403 565.231 292.345 543.242 306.787 528.801 C 320.804 514.784 341.931 512.542 356.914 522.498 C 361.721 521.475 366.707 520.937 371.818 520.937 C 411.234 520.937 443.235 552.938 443.235 592.354 C 443.235 598.157 442.541 603.799 441.232 609.202 Z" stroke-linecap="round"/>
</g>
</svg>